{
.appVersion = "3134";
.formatVersion = 3;
DisplayStrings = (
"",
"."
);
customParameters = (
{
name = vendorID;
value = XXXX;
},
{
name = panose;
value = (
0,
0,
0,
0,
0,
0,
0,
0,
0,
0
);
},
{
name = unicodeRanges;
value = (
0,
1
);
},
{
name = codePageRanges;
value = (
"1252"
);
},
{
name = fsType;
value = (
);
},
{
name = glyphOrder;
value = (
.notdef,
uni0000,
uni000D,
space,
quotesingle,
hyphen,
period,
colon,
A,
B,
C,
D,
E,
F,
G,
H,
I,
J,
K,
L,
M,
N,
O,
P,
Q,
R,
S,
T,
U,
V,
W,
X,
Y,
Z,
a,
b,
c,
d,
e,
f,
g,
h,
i,
j,
k,
l,
m,
n,
o,
p,
q,
r,
s,
t,
u,
v,
w,
x,
y,
z,
uni00A0,
quotesingle.1,
quotesinglbase,
quotedblright,
quotedblleft,
comma
);
}
);
date = "2021-08-01 16:08:54 +0000";
familyName = Pelicula;
fontMaster = (
{
customParameters = (
{
name = typoAscender;
value = 800;
},
{
name = typoDescender;
value = -200;
},
{
name = typoLineGap;
value = 0;
},
{
name = winAscent;
value = 1182;
},
{
name = winDescent;
value = 289;
},
{
name = hheaAscender;
value = 800;
},
{
name = hheaDescender;
value = -200;
},
{
name = strikeoutPosition;
value = 258;
},
{
name = strikeoutSize;
value = 49;
},
{
name = "Alignment Zones";
value = (
{
pos = 845;
size = 19;
},
{
pos = "-100";
size = 0;
}
);
}
);
id = m01;
metricValues = (
{
pos = 800;
},
{
pos = 843;
},
{
pos = 870;
},
{
over = -25;
},
{
pos = -200;
},
{
over = -25;
}
);
name = Medium;
stemValues = (
143,
169,
164,
178
);
}
);
glyphs = (
{
glyphname = quotesingle;
layers = (
{
hints = (
{
horizontal = 1;
place = (503, 295);
place = (503, 295);
type = Stem;
},
{
place = (53, 134);
place = (53, 134);
type = Stem;
}
);
layerId = m01;
shapes = (
{
closed = 1;
nodes = (
(180,708,o),
(200,765,o),
(108,798,cs),
(99,801,o),
(69,767,o),
(64,745,cs),
(55,701,o),
(59,654,o),
(53,609,cs),
(45,550,o),
(70,510,o),
(115,503,cs),
(166,496,o),
(184,543,o),
(187,595,c)
);
}
);
width = 252;
}
);
note = quotesingle;
unicode = 39;
},
{
glyphname = hyphen;
layers = (
{
hints = (
{
horizontal = 1;
place = (380, 183);
place = (380, 183);
type = Stem;
},
{
place = (50, 451);
place = (50, 451);
type = Stem;
},
{
horizontal = 1;
place = (388, 175);
place = (388, 175);
type = Stem;
}
);
layerId = m01;
shapes = (
{
closed = 1;
nodes = (
(252,388,l),
(369,388,o),
(503,368,o),
(501,471,cs),
(500,518,o),
(481,551,o),
(436,551,cs),
(427,551,o),
(417,550,o),
(406,547,cs),
(396,544,o),
(373,555,o),
(119,563,cs),
(74,565,o),
(45,536,o),
(51,495,cs),
(68,383,o),
(147,397,o),
(252,380,c)
);
}
);
width = 553;
}
);
note = hyphen;
unicode = 45;
},
{
glyphname = period;
lastChange = "2022-11-15 11:18:39 +0000";
layers = (
{
hints = (
{
horizontal = 1;
place = (14, 211);
place = (14, 211);
type = Stem;
},
{
place = (51, 175);
place = (51, 175);
type = Stem;
}
);
layerId = m01;
shapes = (
{
closed = 1;
nodes = (
(48,172,o),
(40,136,o),
(71,76,cs),
(87,46,o),
(115,34,o),
(144,34,cs),
(188,34,o),
(231,64,o),
(225,106,cs),
(214,185,o),
(153,225,o),
(110,225,cs),
(94,225,o),
(80,220,o),
(72,208,cs)
);
},
{
closed = 1;
nodes = (
(48,152,o),
(40,116,o),
(71,56,cs),
(87,26,o),
(115,14,o),
(144,14,cs),
(188,14,o),
(231,44,o),
(225,86,cs),
(214,165,o),
(153,205,o),
(110,205,cs),
(94,205,o),
(80,200,o),
(72,188,cs)
);
}
);
width = 276;
}
);
note = period;
unicode = 46;
},
{
glyphname = colon;
layers = (
{
hints = (
{
horizontal = 1;
place = (285, 459);
place = (285, 459);
type = Stem;
},
{
place = (11, 190);
place = (11, 190);
type = Stem;
},
{
horizontal = 1;
place = (545, 199);
place = (545, 199);
type = Stem;
},
{
place = (13, 228);
place = (13, 228);
type = Stem;
}
);
layerId = m01;
shapes = (
{
closed = 1;
nodes = (
(11,572,o),
(41,545,o),
(78,545,cs),
(126,545,o),
(185,592,o),
(198,625,cs),
(218,676,o),
(147,746,o),
(92,744,cs),
(29,743,o),
(7,706,o),
(11,652,c)
);
},
{
closed = 1;
nodes = (
(71,465,o),
(27,433,o),
(16,393,cs),
(0,338,o),
(62,271,o),
(113,287,cs),
(160,301,o),
(218,334,o),
(237,375,cs),
(260,426,o),
(189,485,o),
(90,488,c)
);
}
);
width = 310;
}
);
note = colon;
unicode = 58;
},
{
glyphname = A;
lastChange = "2022-11-15 11:17:29 +0000";
layers = (
{
hints = (
{
horizontal = 1;
place = (-14, 21);
target = up;
type = BottomGhost;
},
{
place = (51, 758);
place = (51, 758);
type = Stem;
}
);
layerId = m01;
shapes = (
{
closed = 1;
nodes = (
(732,266,o),
(684,502,o),
(575,740,cs),
(520,859,o),
(548,828,o),
(423,843,c),
(326,827,o),
(347,852,o),
(272,636,cs),
(88,103,o),
(52,65,o),
(51,49,cs),
(47,6,o),
(90,-5,o),
(122,0,cs),
(254,21,o),
(240,38,o),
(256,86,cs),
(308,244,o),
(305,251,o),
(335,254,cs),
(401,262,o),
(444,274,o),
(482,270,cs),
(507,268,o),
(516,282,o),
(523,282,cs),
(533,282,o),
(539,247,o),
(594,59,cs),
(603,29,o),
(621,-2,o),
(652,0,cs),
(746,6,o),
(773,18,o),
(790,49,cs),
(798,63,o),
(818,71,o),
(805,102,cs)
);
},
{
closed = 1;
nodes = (
(373,418,o),
(378,430,o),
(398,494,cs),
(414,547,o),
(418,550,o),
(426,567,c),
(437,548,o),
(433,564,o),
(474,446,cs),
(481,426,o),
(481,420,o),
(397,418,cs)
);
}
);
width = 860;
}
);
note = A;
unicode = 65;
},
{
glyphname = B;
layers = (
{
hints = (
{
horizontal = 1;
place = (-16, 21);
target = up;
type = BottomGhost;
},
{
horizontal = 1;
place = (689, 127);
place = (689, 127);
type = Stem;
},
{
place = (50, 152);
place = (50, 152);
type = Stem;
},
{
place = (390, 168);
place = (390, 168);
type = Stem;
},
{
place = (365, 133);
place = (365, 133);
type = Stem;
}
);
layerId = m01;
shapes = (
{
closed = 1;
nodes = (
(534,386,o),
(498,403,o),
(414,465,c),
(428,478,o),
(438,489,o),
(448,500,cs),
(533,585,o),
(521,820,o),
(318,816,cs),
(-39,808,o),
(104,912,o),
(57,114,cs),
(55,82,o),
(33,74,o),
(79,7,cs),
(92,-11,o),
(104,-16,o),
(115,-16,cs),
(131,-16,o),
(144,-7,o),
(155,-5,cs),
(198,1,o),
(337,-26,o),
(462,70,cs),
(542,130,o),
(576,208,o),
(548,325,cs)
);
},
{
closed = 1;
nodes = (
(392,661,o),
(368,575,o),
(325,569,cs),
(283,563,o),
(258,556,o),
(242,556,cs),
(227,556,o),
(222,563,o),
(221,585,cs),
(217,661,o),
(212,689,o),
(252,689,cs),
(267,689,o),
(288,685,o),
(318,678,cs)
);
},
{
closed = 1;
nodes = (
(204,139,o),
(200,145,o),
(202,173,cs),
(215,347,o),
(199,342,o),
(240,342,cs),
(295,343,o),
(378,356,o),
(387,277,cs),
(395,207,o),
(401,167,o),
(233,143,cs)
);
}
);
width = 608;
}
);
note = B;
unicode = 66;
},
{
glyphname = C;
layers = (
{
hints = (
{
horizontal = 1;
place = (-7, 168);
place = (-7, 168);
type = Stem;
},
{
horizontal = 1;
place = (668, 167);
place = (668, 167);
type = Stem;
},
{
place = (52, 193);
place = (52, 193);
type = Stem;
}
);
layerId = m01;
shapes = (
{
closed = 1;
nodes = (
(56,285,o),
(61,109,o),
(145,58,cs),
(202,23,o),
(314,-17,o),
(392,-4,cs),
(471,11,o),
(503,47,o),
(563,97,cs),
(588,118,o),
(576,131,o),
(522,202,cs),
(508,220,o),
(494,228,o),
(479,228,cs),
(450,228,o),
(414,199,o),
(358,169,cs),
(347,163,o),
(338,161,o),
(330,161,cs),
(267,161,o),
(268,306,o),
(258,333,cs),
(240,388,o),
(244,444,o),
(251,500,cs),
(257,557,o),
(299,641,o),
(307,648,cs),
(323,661,o),
(341,668,o),
(361,668,cs),
(390,668,o),
(422,652,o),
(452,612,cs),
(465,596,o),
(484,587,o),
(502,587,cs),
(520,587,o),
(537,595,o),
(549,611,cs),
(567,634,o),
(584,657,o),
(612,672,cs),
(640,687,o),
(620,717,o),
(596,739,cs),
(542,790,o),
(481,835,o),
(412,835,cs),
(400,835,o),
(388,834,o),
(376,831,cs),
(361,827,o),
(235,832,o),
(176,747,cs),
(102,640,o),
(45,513,o),
(52,382,cs)
);
}
);
width = 676;
}
);
note = C;
unicode = 67;
},
{
glyphname = D;
layers = (
{
hints = (
{
horizontal = 1;
place = (-25, 21);
target = up;
type = BottomGhost;
},
{
horizontal = 1;
place = (-21, 21);
target = up;
type = BottomGhost;
},
{
horizontal = 1;
place = (671, 154);
place = (671, 154);
type = Stem;
},
{
place = (51, 158);
place = (51, 158);
type = Stem;
},
{
place = (479, 136);
place = (479, 136);
type = Stem;
}
);
layerId = m01;
shapes = (
{
closed = 1;
nodes = (
(386,802,o),
(384,805,o),
(383,805,cs),
(382,805,o),
(384,801,o),
(338,810,cs),
(287,821,o),
(250,825,o),
(216,825,cs),
(179,825,o),
(147,820,o),
(104,812,cs),
(13,795,o),
(67,712,o),
(63,164,cs),
(63,149,o),
(52,73,o),
(51,38,cs),
(51,-5,o),
(100,-25,o),
(142,-25,c),
(226,-15,o),
(106,-33,o),
(328,8,cs),
(387,19,o),
(468,43,o),
(505,91,cs),
(698,341,o),
(619,708,o),
(416,790,cs)
);
},
{
closed = 1;
nodes = (
(477,372,o),
(439,283,o),
(379,229,cs),
(365,216,o),
(302,186,o),
(251,183,cs),
(222,181,o),
(210,185,o),
(209,557,cs),
(209,615,o),
(196,678,o),
(251,671,cs),
(312,663,o),
(344,664,o),
(357,658,cs),
(423,630,o),
(487,618,o),
(479,408,cs)
);
}
);
width = 666;
}
);
note = D;
unicode = 68;
},
{
glyphname = E;
layers = (
{
hints = (
{
horizontal = 1;
place = (-19, 154);
place = (-19, 154);
type = Stem;
},
{
place = (51, 164);
place = (51, 164);
type = Stem;
}
);
layerId = m01;
shapes = (
{
closed = 1;
nodes = (
(512,93,o),
(510,111,o),
(484,144,cs),
(480,150,o),
(475,153,o),
(462,153,cs),
(443,153,o),
(407,147,o),
(328,139,cs),
(306,137,o),
(289,135,o),
(277,135,cs),
(248,135,o),
(243,144,o),
(240,170,cs),
(223,374,o),
(219,372,o),
(256,377,cs),
(383,394,o),
(414,379,o),
(416,426,cs),
(420,506,o),
(407,563,o),
(328,553,cs),
(280,546,o),
(253,542,o),
(237,542,cs),
(216,542,o),
(216,549,o),
(215,565,cs),
(209,699,o),
(216,659,o),
(326,666,cs),
(422,673,o),
(512,659,o),
(513,705,cs),
(513,750,o),
(512,827,o),
(467,828,cs),
(425,829,o),
(382,832,o),
(341,825,cs),
(305,819,o),
(278,817,o),
(255,817,cs),
(200,817,o),
(167,827,o),
(86,809,cs),
(54,802,o),
(51,777,o),
(51,712,cs),
(51,594,o),
(63,416,o),
(64,407,cs),
(95,182,o),
(25,-30,o),
(125,-30,cs),
(132,-30,o),
(141,-28,o),
(150,-26,cs),
(173,-20,o),
(201,-19,o),
(232,-19,cs),
(285,-19,o),
(346,-23,o),
(397,-14,cs),
(459,-3,o),
(525,-7,o),
(518,43,cs)
);
}
);
width = 569;
}
);
note = E;
unicode = 69;
},
{
glyphname = F;
layers = (
{
hints = (
{
horizontal = 1;
place = (-13, 21);
target = up;
type = BottomGhost;
},
{
horizontal = 1;
place = (682, 151);
place = (682, 151);
type = Stem;
},
{
place = (56, 178);
place = (56, 178);
type = Stem;
}
);
layerId = m01;
shapes = (
{
closed = 1;
nodes = (
(513,594,o),
(369,553,o),
(276,560,cs),
(255,561,o),
(240,560,o),
(234,627,cs),
(228,684,o),
(243,679,o),
(466,682,cs),
(514,682,o),
(538,708,o),
(532,755,cs),
(523,820,o),
(506,834,o),
(440,833,cs),
(400,833,o),
(320,843,o),
(291,838,cs),
(272,835,o),
(254,833,o),
(235,833,cs),
(207,833,o),
(179,837,o),
(151,842,cs),
(111,850,o),
(74,826,o),
(64,786,cs),
(44,708,o),
(70,624,o),
(60,504,cs),
(56,466,o),
(44,429,o),
(55,390,cs),
(67,347,o),
(56,169,o),
(60,125,cs),
(67,47,o),
(62,-7,o),
(129,-13,cs),
(291,-27,o),
(242,14,o),
(234,343,cs),
(233,388,o),
(268,385,o),
(346,389,cs),
(430,394,o),
(470,383,o),
(482,441,cs)
);
}
);
width = 583;
}
);
note = F;
unicode = 70;
},
{
glyphname = G;
layers = (
{
hints = (
{
horizontal = 1;
place = (-2, 21);
target = up;
type = BottomGhost;
},
{
horizontal = 1;
place = (300, 130);
place = (300, 130);
type = Stem;
},
{
horizontal = 1;
place = (683, 142);
place = (683, 142);
type = Stem;
},
{
place = (50, 176);
place = (50, 176);
type = Stem;
},
{
place = (542, 185);
place = (542, 185);
type = Stem;
},
{
horizontal = 1;
place = (-15, 145);
place = (-15, 145);
type = Stem;
}
);
layerId = m01;
shapes = (
{
closed = 1;
nodes = (
(494,424,o),
(475,431,o),
(455,431,cs),
(439,431,o),
(423,426,o),
(406,409,cs),
(399,402,o),
(407,353,o),
(421,339,cs),
(460,298,o),
(491,305,o),
(542,300,c),
(551,171,o),
(468,130,o),
(400,130,cs),
(367,130,o),
(337,140,o),
(323,154,c),
(256,162,o),
(183,399,o),
(257,525,cs),
(290,583,o),
(342,655,o),
(409,665,cs),
(437,670,o),
(449,683,o),
(465,683,cs),
(483,683,o),
(508,663,o),
(574,585,cs),
(585,572,o),
(596,566,o),
(611,566,cs),
(631,566,o),
(659,577,o),
(706,591,cs),
(732,599,o),
(733,629,o),
(721,651,cs),
(671,750,o),
(625,825,o),
(446,825,cs),
(425,825,o),
(403,824,o),
(379,822,cs),
(248,812,o),
(293,810,o),
(240,784,cs),
(50,691,o),
(-19,239,o),
(135,114,cs),
(174,82,o),
(209,43,o),
(256,21,cs),
(315,-7,o),
(358,-15,o),
(389,-15,cs),
(430,-15,o),
(453,-2,o),
(468,-2,cs),
(487,-2,o),
(505,-1,o),
(522,6,cs),
(555,20,o),
(541,-37,o),
(630,-23,cs),
(737,-7,o),
(706,-60,o),
(727,361,cs),
(730,418,o),
(686,430,o),
(624,430,cs),
(591,430,o),
(553,427,o),
(514,425,cs)
);
}
);
width = 779;
}
);
note = G;
unicode = 71;
},
{
glyphname = H;
layers = (
{
hints = (
{
horizontal = 1;
place = (-4, 21);
target = up;
type = BottomGhost;
},
{
horizontal = 1;
place = (410, 162);
place = (410, 162);
type = Stem;
},
{
place = (60, 151);
place = (60, 151);
type = Stem;
},
{
place = (489, 183);
place = (489, 183);
type = Stem;
},
{
horizontal = 1;
place = (-14, 21);
target = up;
type = BottomGhost;
}
);
layerId = m01;
shapes = (
{
closed = 1;
nodes = (
(672,64,o),
(661,349,o),
(661,349,c),
(653,440,o),
(642,481,o),
(632,679,cs),
(628,756,o),
(650,828,o),
(575,829,cs),
(526,830,o),
(448,844,o),
(462,773,cs),
(472,724,o),
(471,674,o),
(471,624,cs),
(471,589,o),
(465,583,o),
(432,577,cs),
(411,573,o),
(389,572,o),
(368,572,cs),
(327,572,o),
(286,577,o),
(245,576,cs),
(210,575,o),
(214,666,o),
(211,793,cs),
(210,828,o),
(208,839,o),
(85,843,cs),
(65,843,o),
(51,828,o),
(50,808,cs),
(50,796,o),
(53,785,o),
(55,774,cs),
(64,722,o),
(60,797,o),
(60,621,cs),
(60,120,o),
(75,323,o),
(67,49,cs),
(65,-1,o),
(92,-9,o),
(210,-4,cs),
(271,-1,o),
(246,103,o),
(244,154,cs),
(242,187,o),
(247,221,o),
(240,252,cs),
(232,291,o),
(239,329,o),
(238,367,cs),
(238,394,o),
(250,405,o),
(277,404,cs),
(364,400,o),
(414,410,o),
(442,410,cs),
(468,410,o),
(476,402,o),
(478,368,cs),
(493,113,o),
(461,189,o),
(489,29,cs),
(494,-3,o),
(531,-14,o),
(570,-14,cs),
(593,-14,o),
(616,-10,o),
(634,-4,c),
(651,10,o),
(665,30,o),
(672,64,c)
);
}
);
width = 722;
}
);
note = H;
unicode = 72;
},
{
glyphname = I;
layers = (
{
hints = (
{
horizontal = 1;
place = (-19, 21);
target = up;
type = BottomGhost;
},
{
place = (51, 153);
place = (51, 153);
type = Stem;
}
);
layerId = m01;
shapes = (
{
closed = 1;
nodes = (
(246,136,o),
(204,767,o),
(204,768,cs),
(198,816,o),
(165,821,o),
(98,819,cs),
(40,817,o),
(52,763,o),
(51,688,cs),
(49,441,o),
(51,556,o),
(59,399,cs),
(76,66,o),
(34,-15,o),
(123,-19,cs),
(210,-23,o),
(232,-12,o),
(236,28,cs)
);
}
);
width = 288;
}
);
note = I;
unicode = 73;
},
{
glyphname = J;
layers = (
{
hints = (
{
horizontal = 1;
place = (-16, 21);
target = up;
type = BottomGhost;
},
{
horizontal = 1;
place = (844, -20);
target = down;
type = TopGhost;
},
{
place = (51, 618);
place = (51, 618);
type = Stem;
},
{
horizontal = 1;
place = (614, 216);
place = (614, 216);
type = Stem;
},
{
horizontal = 1;
place = (-16, 168);
place = (-16, 168);
type = Stem;
}
);
layerId = m01;
shapes = (
{
closed = 1;
nodes = (
(652,701,o),
(646,722,o),
(642,737,c),
(645,781,o),
(616,829,o),
(568,834,c),
(557,838,o),
(544,841,o),
(531,841,cs),
(523,841,o),
(514,840,o),
(505,837,cs),
(498,835,o),
(483,833,o),
(462,830,c),
(371,829,o),
(280,834,o),
(190,844,cs),
(134,851,o),
(99,797,o),
(104,747,c),
(104,733,o),
(105,720,o),
(107,706,cs),
(108,702,o),
(129,650,o),
(194,646,cs),
(231,645,o),
(239,648,o),
(261,632,cs),
(285,615,o),
(287,428,o),
(285,396,cs),
(279,313,o),
(283,348,o),
(291,195,cs),
(292,175,o),
(281,152,o),
(262,152,cs),
(255,152,o),
(248,154,o),
(239,161,cs),
(231,167,o),
(211,196,o),
(174,201,cs),
(134,206,o),
(83,172,o),
(59,138,cs),
(47,121,o),
(48,112,o),
(62,97,cs),
(72,86,o),
(163,16,o),
(200,-3,cs),
(220,-12,o),
(245,-16,o),
(272,-16,cs),
(307,-16,o),
(343,-10,o),
(370,-1,cs),
(464,28,o),
(449,121,o),
(469,321,cs),
(492,545,o),
(455,595,o),
(530,605,c),
(530,605,o),
(658,614,o),
(659,614,c),
(674,655,o),
(670,649,o),
(663,669,cs)
);
}
);
width = 720;
}
);
note = J;
unicode = 74;
},
{
glyphname = K;
layers = (
{
hints = (
{
horizontal = 1;
place = (-1, 21);
target = up;
type = BottomGhost;
},
{
horizontal = 1;
place = (846, -20);
target = down;
type = TopGhost;
},
{
place = (72, 188);
place = (72, 188);
type = Stem;
},
{
horizontal = 1;
place = (-5, 21);
target = up;
type = BottomGhost;
},
{
horizontal = 1;
place = (-6, 21);
target = up;
type = BottomGhost;
},
{
horizontal = 1;
place = (-11, 21);
target = up;
type = BottomGhost;
}
);
layerId = m01;
shapes = (
{
closed = 1;
nodes = (
(493,33,o),
(454,-5,o),
(542,-5,cs),
(566,-5,o),
(599,-3,o),
(647,-1,cs),
(745,2,o),
(586,163,o),
(496,339,cs),
(389,546,o),
(349,423,o),
(612,777,c),
(603,808,o),
(578,826,o),
(552,829,cs),
(495,835,o),
(468,846,o),
(449,846,cs),
(412,846,o),
(409,801,o),
(262,583,c),
(240,718,o),
(265,785,o),
(240,811,cs),
(224,827,o),
(203,837,o),
(181,837,cs),
(171,837,o),
(161,835,o),
(151,830,cs),
(141,825,o),
(131,823,o),
(121,823,cs),
(114,823,o),
(107,824,o),
(100,826,cs),
(15,852,o),
(65,664,o),
(63,498,cs),
(62,447,o),
(72,254,o),
(72,254,c),
(82,69,o),
(50,9,o),
(125,-6,cs),
(146,-10,o),
(168,-13,o),
(189,-11,cs),
(232,-9,o),
(263,19,o),
(265,57,cs),
(268,114,o),
(277,171,o),
(264,229,cs),
(254,274,o),
(261,285,o),
(300,305,c)
);
}
);
width = 728;
}
);
note = K;
unicode = 75;
},
{
glyphname = L;
layers = (
{
hints = (
{
horizontal = 1;
place = (-6, 21);
target = up;
type = BottomGhost;
},
{
place = (71, 168);
place = (71, 168);
type = Stem;
}
);
layerId = m01;
shapes = (
{
closed = 1;
nodes = (
(221,757,o),
(229,787,o),
(202,797,cs),
(189,802,o),
(174,808,o),
(161,807,cs),
(71,797,o),
(54,781,o),
(60,742,cs),
(81,615,o),
(66,192,o),
(65,168,cs),
(54,-38,o),
(-31,-4,o),
(381,-6,cs),
(486,-6,o),
(486,-18,o),
(500,67,cs),
(508,111,o),
(479,147,o),
(436,150,cs),
(200,165,o),
(231,104,o),
(239,311,cs),
(242,380,o),
(221,704,o),
(219,725,c)
);
}
);
width = 552;
}
);
note = L;
unicode = 76;
},
{
glyphname = M;
layers = (
{
hints = (
{
horizontal = 1;
place = (-1, 21);
target = up;
type = BottomGhost;
},
{
horizontal = 1;
place = (845, -20);
target = down;
type = TopGhost;
},
{
place = (51, 236);
place = (51, 236);
type = Stem;
},
{
place = (815, 156);
place = (815, 156);
type = Stem;
},
{
horizontal = 1;
place = (-17, 21);
target = up;
type = BottomGhost;
}
);
layerId = m01;
shapes = (
{
closed = 1;
nodes = (
(973,174,o),
(1016,119,o),
(914,493,cs),
(885,597,o),
(880,593,o),
(862,682,cs),
(856,711,o),
(839,790,o),
(814,808,c),
(802,828,o),
(771,845,o),
(714,842,c),
(712,844,o),
(710,844,o),
(707,845,cs),
(613,862,o),
(602,714,o),
(520,620,c),
(416,805,o),
(414,828,o),
(385,819,cs),
(347,807,o),
(309,812,o),
(271,814,cs),
(233,817,o),
(237,798,o),
(226,747,cs),
(187,551,o),
(183,584,o),
(150,446,cs),
(107,267,o),
(101,182,o),
(70,120,cs),
(40,61,o),
(41,1,o),
(108,-1,cs),
(171,-2,o),
(221,-2,o),
(240,55,cs),
(264,127,o),
(340,538,o),
(377,563,c),
(398,532,o),
(419,502,o),
(438,472,c),
(439,472,o),
(472,371,o),
(560,387,cs),
(581,391,o),
(615,387,o),
(621,421,cs),
(623,433,o),
(625,435,o),
(691,547,cs),
(699,561,o),
(707,567,o),
(714,567,cs),
(720,567,o),
(725,561,o),
(728,553,c),
(729,552,o),
(768,399,o),
(780,344,cs),
(790,293,o),
(789,240,o),
(806,191,cs),
(808,184,o),
(808,177,o),
(808,170,cs),
(805,119,o),
(822,69,o),
(811,18,cs),
(807,0,o),
(816,-6,o),
(835,-8,cs),
(941,-15,o),
(826,-19,o),
(990,-17,cs),
(1033,-17,o),
(1033,15,o),
(1018,55,cs)
);
}
);
width = 1077;
}
);
note = M;
unicode = 77;
},
{
glyphname = N;
layers = (
{
hints = (
{
horizontal = 1;
place = (-8, 21);
target = up;
type = BottomGhost;
},
{
horizontal = 1;
place = (844, -20);
target = down;
type = TopGhost;
},
{
place = (58, 214);
place = (58, 214);
type = Stem;
},
{
horizontal = 1;
place = (-16, 21);
target = up;
type = BottomGhost;
}
);
layerId = m01;
shapes = (
{
closed = 1;
nodes = (
(484,377,o),
(410,545,o),
(276,733,cs),
(230,797,o),
(239,815,o),
(208,826,cs),
(182,835,o),
(155,844,o),
(128,844,cs),
(115,844,o),
(103,843,o),
(90,838,cs),
(60,827,o),
(50,818,o),
(51,785,cs),
(58,406,o),
(63,234,o),
(51,66,cs),
(47,7,o),
(73,4,o),
(118,4,cs),
(147,4,o),
(183,5,o),
(225,-5,cs),
(293,-22,o),
(269,28,o),
(265,424,c),
(264,428,o),
(268,433,o),
(273,443,c),
(431,159,o),
(382,233,o),
(404,200,cs),
(501,50,o),
(524,-16,o),
(560,-16,cs),
(565,-16,o),
(571,-15,o),
(577,-12,cs),
(640,19,o),
(710,-14,o),
(711,59,cs),
(711,96,o),
(708,10,o),
(710,316,cs),
(712,596,o),
(768,842,o),
(683,838,cs),
(648,836,o),
(612,836,o),
(577,831,cs),
(489,818,o),
(583,672,o),
(531,334,c)
);
}
);
width = 780;
}
);
note = N;
unicode = 78;
},
{
glyphname = O;
layers = (
{
hints = (
{
horizontal = 1;
place = (-14, 21);
target = up;
type = BottomGhost;
},
{
horizontal = 1;
place = (666, 177);
place = (666, 177);
type = Stem;
},
{
place = (51, 191);
place = (51, 191);
type = Stem;
},
{
place = (567, 183);
place = (567, 183);
type = Stem;
},
{
horizontal = 1;
place = (-14, 185);
place = (-14, 185);
type = Stem;
}
);
layerId = m01;
shapes = (
{
closed = 1;
nodes = (
(721,616,o),
(703,680,o),
(678,706,cs),
(581,805,o),
(496,843,o),
(407,843,cs),
(356,843,o),
(304,830,o),
(247,810,cs),
(50,738,o),
(1,401,o),
(101,190,cs),
(150,85,o),
(176,69,o),
(248,19,cs),
(282,-4,o),
(323,-14,o),
(357,-14,cs),
(377,-14,o),
(395,-11,o),
(407,-5,cs),
(541,57,o),
(575,67,o),
(628,112,cs),
(709,182,o),
(738,296,o),
(741,307,cs),
(761,414,o),
(744,560,o),
(737,576,cs)
);
},
{
closed = 1;
nodes = (
(532,237,o),
(457,171,o),
(371,171,cs),
(347,171,o),
(321,176,o),
(295,188,cs),
(251,207,o),
(253,269,o),
(242,409,c),
(262,598,o),
(259,514,o),
(286,608,cs),
(299,653,o),
(333,662,o),
(374,666,cs),
(424,670,o),
(467,647,o),
(510,629,cs),
(534,620,o),
(541,593,o),
(546,569,cs),
(559,506,o),
(577,427,o),
(561,356,cs)
);
}
);
width = 801;
}
);
note = O;
unicode = 79;
},
{
glyphname = P;
layers = (
{
hints = (
{
horizontal = 1;
place = (-14, 21);
target = up;
type = BottomGhost;
},
{
horizontal = 1;
place = (717, 125);
place = (717, 125);
type = Stem;
},
{
place = (69, 165);
place = (69, 165);
type = Stem;
},
{
place = (416, 214);
place = (416, 214);
type = Stem;
}
);
layerId = m01;
shapes = (
{
closed = 1;
nodes = (
(65,449,o),
(69,461,o),
(57,181,cs),
(49,-17,o),
(22,-13,o),
(190,-14,cs),
(249,-14,o),
(246,14,o),
(241,333,cs),
(240,369,o),
(246,369,o),
(261,369,cs),
(437,377,o),
(587,483,o),
(618,564,cs),
(647,637,o),
(619,682,o),
(581,750,cs),
(542,818,o),
(474,835,o),
(405,839,cs),
(378,840,o),
(334,842,o),
(287,842,cs),
(181,842,o),
(56,832,o),
(61,778,cs),
(87,528,o),
(42,497,o),
(58,463,cs)
);
},
{
closed = 1;
nodes = (
(235,706,o),
(230,709,o),
(262,712,cs),
(288,715,o),
(310,717,o),
(328,717,cs),
(368,717,o),
(392,708,o),
(403,678,cs),
(445,561,o),
(387,552,o),
(275,541,cs),
(235,538,o),
(235,545,o),
(234,565,cs),
(234,571,o),
(233,626,o),
(235,626,c)
);
}
);
width = 681;
}
);
note = P;
unicode = 80;
},
{
glyphname = Q;
layers = (
{
hints = (
{
horizontal = 1;
place = (-25, 144);
place = (-25, 144);
type = Stem;
},
{
horizontal = 1;
place = (647, 176);
place = (647, 176);
type = Stem;
},
{
place = (51, 210);
place = (51, 210);
type = Stem;
},
{
place = (538, 188);
place = (538, 188);
type = Stem;
}
);
layerId = m01;
shapes = (
{
closed = 1;
nodes = (
(642,91,o),
(661,107,o),
(674,130,cs),
(748,262,o),
(735,452,o),
(687,603,cs),
(661,686,o),
(617,729,o),
(483,802,cs),
(454,818,o),
(430,823,o),
(410,823,cs),
(372,823,o),
(344,805,o),
(309,804,cs),
(269,803,o),
(192,770,o),
(141,703,cs),
(76,618,o),
(70,552,o),
(58,442,cs),
(53,400,o),
(39,287,o),
(70,229,cs),
(250,-109,o),
(451,7,o),
(473,-52,cs),
(486,-84,o),
(506,-113,o),
(516,-147,cs),
(525,-181,o),
(547,-194,o),
(575,-194,cs),
(611,-194,o),
(658,-171,o),
(697,-143,cs),
(741,-112,o),
(766,-93,o),
(667,54,cs)
);
},
{
closed = 1;
nodes = (
(519,238,o),
(432,251,o),
(402,185,cs),
(389,158,o),
(398,161,o),
(406,120,c),
(362,120,o),
(338,146,o),
(317,172,cs),
(255,248,o),
(253,307,o),
(268,492,cs),
(270,509,o),
(281,586,o),
(294,598,cs),
(332,630,o),
(380,647,o),
(419,647,cs),
(451,647,o),
(478,636,o),
(490,613,cs),
(546,507,o),
(545,405,o),
(527,289,cs)
);
}
);
width = 786;
}
);
note = Q;
unicode = 81;
},
{
glyphname = R;
layers = (
{
hints = (
{
horizontal = 1;
place = (-25, 21);
target = up;
type = BottomGhost;
},
{
horizontal = 1;
place = (-21, 21);
target = up;
type = BottomGhost;
},
{
horizontal = 1;
place = (-12, 21);
target = up;
type = BottomGhost;
},
{
horizontal = 1;
place = (687, 138);
place = (687, 138);
type = Stem;
},
{
place = (72, 179);
place = (72, 179);
type = Stem;
},
{
place = (435, 172);
place = (435, 172);
type = Stem;
}
);
layerId = m01;
shapes = (
{
closed = 1;
nodes = (
(543,177,o),
(507,270,o),
(468,350,cs),
(451,385,o),
(451,386,o),
(485,403,cs),
(531,425,o),
(571,454,o),
(588,505,cs),
(596,529,o),
(610,554,o),
(607,578,cs),
(603,617,o),
(608,658,o),
(584,696,cs),
(523,791,o),
(501,823,o),
(302,823,c),
(302,825,l),
(7,825,o),
(77,785,o),
(72,656,cs),
(63,451,o),
(78,110,o),
(53,47,cs),
(42,17,o),
(72,-10,o),
(97,-12,cs),
(156,-16,o),
(249,-14,o),
(250,46,cs),
(251,160,o),
(238,312,o),
(266,326,cs),
(290,339,o),
(342,176,o),
(347,166,cs),
(375,101,o),
(411,33,o),
(413,23,cs),
(420,-14,o),
(449,-25,o),
(498,-25,cs),
(516,-25,o),
(537,-23,o),
(561,-21,cs),
(613,-16,o),
(618,44,o),
(596,83,cs)
);
},
{
closed = 1;
nodes = (
(318,530,o),
(353,529,o),
(257,521,c),
(252,563,o),
(251,541,o),
(251,646,cs),
(251,674,o),
(257,680,o),
(285,687,cs),
(309,692,o),
(331,683,o),
(354,679,cs),
(421,667,o),
(476,558,o),
(393,544,cs)
);
}
);
width = 659;
}
);
note = R;
unicode = 82;
},
{
glyphname = S;
layers = (
{
hints = (
{
horizontal = 1;
place = (1, 144);
place = (1, 144);
type = Stem;
},
{
horizontal = 1;
place = (694, 146);
place = (694, 146);
type = Stem;
},
{
place = (75, 176);
place = (75, 176);
type = Stem;
},
{
place = (398, 168);
place = (398, 168);
type = Stem;
}
);
layerId = m01;
shapes = (
{
closed = 1;
nodes = (
(449,3,o),
(616,115,o),
(553,289,cs),
(510,408,o),
(491,426,o),
(268,576,cs),
(226,603,o),
(269,694,o),
(332,694,cs),
(340,694,o),
(348,692,o),
(357,689,cs),
(431,659,o),
(412,619,o),
(472,628,cs),
(513,634,o),
(634,585,o),
(491,796,cs),
(485,804,o),
(478,804,o),
(361,833,cs),
(344,837,o),
(324,840,o),
(304,840,cs),
(250,840,o),
(191,822,o),
(158,778,cs),
(78,671,o),
(47,595,o),
(105,480,cs),
(129,433,o),
(168,407,o),
(217,390,cs),
(316,356,o),
(331,328,o),
(387,266,cs),
(426,222,o),
(355,145,o),
(278,145,cs),
(260,145,o),
(241,149,o),
(224,159,cs),
(179,183,o),
(179,232,o),
(145,232,cs),
(139,232,o),
(131,230,o),
(121,226,cs),
(-3,172,o),
(72,139,o),
(86,97,cs),
(96,71,o),
(112,54,o),
(137,44,cs),
(163,33,o),
(168,0,o),
(260,1,cs)
);
}
);
width = 617;
}
);
note = S;
unicode = 83;
},
{
glyphname = T;
layers = (
{
hints = (
{
horizontal = 1;
place = (-15, 21);
target = up;
type = BottomGhost;
},
{
horizontal = 1;
place = (648, 181);
place = (648, 181);
type = Stem;
},
{
place = (202, 178);
place = (202, 178);
type = Stem;
}
);
layerId = m01;
shapes = (
{
closed = 1;
nodes = (
(132,645,o),
(150,648,o),
(163,648,cs),
(231,648,o),
(179,582,o),
(202,57,cs),
(204,12,o),
(245,-5,o),
(300,-15,cs),
(329,-20,o),
(380,13,o),
(380,60,cs),
(380,118,o),
(379,170,o),
(371,225,cs),
(360,296,o),
(370,380,o),
(372,461,cs),
(377,703,o),
(333,631,o),
(549,669,cs),
(589,676,o),
(581,725,o),
(579,769,cs),
(574,835,o),
(506,839,o),
(449,839,cs),
(423,839,o),
(399,838,o),
(384,842,cs),
(357,850,o),
(87,829,o),
(86,829,cs),
(46,826,o),
(50,788,o),
(52,747,cs),
(54,718,o),
(53,681,o),
(107,643,c)
);
}
);
width = 632;
}
);
note = T;
unicode = 84;
},
{
glyphname = U;
layers = (
{
hints = (
{
horizontal = 1;
place = (-18, 21);
target = up;
type = BottomGhost;
},
{
horizontal = 1;
place = (846, -20);
target = down;
type = TopGhost;
},
{
place = (471, 195);
place = (471, 195);
type = Stem;
},
{
place = (459, 184);
place = (459, 184);
type = Stem;
}
);
layerId = m01;
shapes = (
{
closed = 1;
nodes = (
(665,639,o),
(650,702,o),
(643,767,cs),
(638,814,o),
(562,831,o),
(514,829,cs),
(433,826,o),
(465,746,o),
(467,664,cs),
(470,570,o),
(481,299,o),
(450,209,cs),
(437,170,o),
(401,151,o),
(367,151,cs),
(341,151,o),
(315,163,o),
(304,185,c),
(303,186,o),
(272,230,o),
(270,257,cs),
(210,813,o),
(325,771,o),
(207,830,cs),
(174,847,o),
(137,841,o),
(103,846,cs),
(29,858,o),
(54,743,o),
(56,653,cs),
(66,230,o),
(75,326,o),
(82,210,cs),
(88,110,o),
(181,-6,o),
(325,2,cs),
(375,4,o),
(387,-18,o),
(420,-18,cs),
(433,-18,o),
(449,-15,o),
(471,-6,cs),
(490,2,o),
(549,-3,o),
(600,80,cs),
(616,105,o),
(621,142,o),
(629,157,cs),
(668,229,o),
(658,302,o),
(663,411,cs),
(666,478,o),
(670,403,o),
(659,574,c)
);
}
);
width = 717;
}
);
note = U;
unicode = 85;
},
{
glyphname = V;
layers = (
{
hints = (
{
horizontal = 1;
place = (-7, 21);
target = up;
type = BottomGhost;
},
{
place = (50, 605);
place = (50, 605);
type = Stem;
},
{
place = (50, 182);
place = (50, 182);
type = Stem;
}
);
layerId = m01;
shapes = (
{
closed = 1;
nodes = (
(701,745,o),
(617,836,o),
(541,836,cs),
(504,836,o),
(468,814,o),
(454,759,cs),
(430,669,o),
(379,478,o),
(378,472,cs),
(338,294,o),
(349,330,o),
(332,307,c),
(322,339,o),
(310,366,o),
(306,395,cs),
(276,600,o),
(307,353,o),
(232,791,cs),
(228,815,o),
(193,828,o),
(155,828,cs),
(98,828,o),
(33,799,o),
(54,737,cs),
(81,658,o),
(46,749,o),
(189,207,cs),
(228,60,o),
(212,18,o),
(282,-1,cs),
(296,-5,o),
(313,-7,o),
(331,-7,cs),
(372,-7,o),
(416,4,o),
(430,35,cs),
(463,111,o),
(469,190,o),
(510,265,c),
(510,265,o),
(533,410,o),
(586,567,cs),
(615,652,o),
(618,663,o),
(627,672,cs)
);
}
);
width = 701;
}
);
note = V;
unicode = 86;
},
{
glyphname = W;
layers = (
{
hints = (
{
horizontal = 1;
place = (-22, 21);
target = up;
type = BottomGhost;
},
{
place = (117, 115);
place = (117, 115);
type = Stem;
},
{
place = (678, 206);
place = (678, 206);
type = Stem;
}
);
layerId = m01;
shapes = (
{
closed = 1;
nodes = (
(220,378,o),
(253,703,o),
(188,785,cs),
(174,803,o),
(153,808,o),
(131,808,cs),
(115,808,o),
(97,805,o),
(81,803,cs),
(72,802,o),
(45,785,o),
(51,741,cs),
(61,669,o),
(135,103,o),
(113,21,cs),
(105,-10,o),
(153,-30,o),
(175,-30,cs),
(356,-29,o),
(260,-1,o),
(400,228,cs),
(404,235,o),
(409,239,o),
(413,239,cs),
(454,239,o),
(497,-35,o),
(573,-22,cs),
(615,-15,o),
(658,-25,o),
(669,13,c),
(669,13,o),
(799,510,o),
(811,535,cs),
(829,571,o),
(870,698,o),
(881,737,cs),
(900,802,o),
(857,830,o),
(809,830,cs),
(767,830,o),
(722,809,o),
(711,774,cs),
(680,672,o),
(673,552,o),
(591,328,cs),
(582,304,o),
(575,292,o),
(568,292,cs),
(557,292,o),
(546,320,o),
(525,377,cs),
(477,509,o),
(495,514,o),
(405,521,cs),
(303,529,o),
(314,383,o),
(263,339,c)
);
}
);
width = 936;
}
);
note = W;
unicode = 87;
},
{
glyphname = X;
layers = (
{
hints = (
{
horizontal = 1;
place = (-8, 21);
target = up;
type = BottomGhost;
},
{
place = (327, 227);
place = (327, 227);
type = Stem;
},
{
horizontal = 1;
place = (-14, 21);
target = up;
type = BottomGhost;
},
{
horizontal = 1;
place = (-12, 21);
target = up;
type = BottomGhost;
},
{
place = (555, 197);
place = (555, 197);
type = Stem;
}
);
layerId = m01;
shapes = (
{
closed = 1;
nodes = (
(761,712,o),
(789,720,o),
(783,746,cs),
(777,777,o),
(772,803,o),
(741,805,cs),
(725,806,o),
(702,808,o),
(679,808,cs),
(647,808,o),
(616,804,o),
(606,786,cs),
(594,762,o),
(560,717,o),
(536,679,cs),
(471,577,o),
(452,535,o),
(438,535,cs),
(426,535,o),
(418,565,o),
(390,612,cs),
(309,746,o),
(331,758,o),
(293,777,cs),
(271,788,o),
(230,801,o),
(199,801,cs),
(187,801,o),
(177,799,o),
(170,794,cs),
(159,785,o),
(150,774,o),
(141,763,cs),
(132,753,o),
(131,740,o),
(138,729,c),
(159,688,o),
(175,645,o),
(204,608,cs),
(236,566,o),
(263,519,o),
(288,472,cs),
(345,364,o),
(351,402,o),
(230,251,cs),
(192,204,o),
(183,165,o),
(83,74,c),
(77,62,o),
(69,52,o),
(66,39,cs),
(62,18,o),
(77,-14,o),
(118,-14,cs),
(125,-14,o),
(133,-13,o),
(142,-11,cs),
(153,-8,o),
(165,-8,o),
(177,-8,cs),
(199,-8,o),
(220,-10,o),
(238,-4,cs),
(282,13,o),
(259,5,o),
(304,67,cs),
(314,82,o),
(356,118,o),
(374,139,cs),
(399,168,o),
(408,200,o),
(441,222,c),
(470,175,o),
(493,143,o),
(528,87,cs),
(571,18,o),
(544,24,o),
(567,6,cs),
(586,-10,o),
(617,-17,o),
(635,-12,cs),
(724,13,o),
(788,22,o),
(733,95,cs),
(685,158,o),
(702,156,o),
(602,305,cs),
(539,397,o),
(545,381,o),
(579,434,cs)
);
}
);
width = 849;
}
);
note = X;
unicode = 88;
},
{
glyphname = Y;
layers = (
{
hints = (
{
horizontal = 1;
place = (-11, 21);
target = up;
type = BottomGhost;
},
{
place = (219, 162);
place = (219, 162);
type = Stem;
}
);
layerId = m01;
shapes = (
{
closed = 1;
nodes = (
(213,771,o),
(196,813,o),
(135,813,cs),
(120,813,o),
(101,810,o),
(78,806,cs),
(53,801,o),
(48,795,o),
(52,772,cs),
(56,752,o),
(146,597,o),
(196,540,cs),
(251,477,o),
(234,437,o),
(235,336,cs),
(237,57,o),
(197,30,o),
(236,9,cs),
(260,-4,o),
(290,-11,o),
(318,-11,cs),
(359,-11,o),
(395,5,o),
(395,44,cs),
(395,51,o),
(395,224,o),
(395,231,cs),
(387,427,o),
(355,476,o),
(426,540,cs),
(496,603,o),
(579,745,o),
(579,745,c),
(612,809,o),
(477,808,o),
(476,808,cs),
(456,812,o),
(441,807,o),
(430,791,cs),
(396,745,o),
(317,636,o),
(293,621,c)
);
}
);
width = 635;
}
);
note = Y;
unicode = 89;
},
{
glyphname = Z;
layers = (
{
hints = (
{
horizontal = 1;
place = (-13, 165);
place = (-13, 165);
type = Stem;
},
{
horizontal = 1;
place = (648, 157);
place = (648, 157);
type = Stem;
},
{
place = (50, 630);
place = (50, 630);
type = Stem;
}
);
layerId = m01;
shapes = (
{
closed = 1;
nodes = (
(661,117,o),
(717,191,o),
(600,176,cs),
(594,175,o),
(595,170,o),
(571,168,cs),
(477,159,o),
(404,152,o),
(356,152,cs),
(333,152,o),
(316,154,o),
(305,158,c),
(306,158,o),
(424,303,o),
(426,306,cs),
(690,671,o),
(660,640,o),
(674,729,cs),
(677,752,o),
(652,795,o),
(631,803,cs),
(605,812,o),
(577,817,o),
(550,817,cs),
(539,817,o),
(527,816,o),
(515,814,cs),
(462,805,o),
(470,811,o),
(390,806,cs),
(346,803,o),
(369,814,o),
(303,808,cs),
(212,799,o),
(161,816,o),
(129,816,cs),
(106,816,o),
(93,807,o),
(84,769,cs),
(66,702,o),
(111,649,o),
(169,648,cs),
(336,643,o),
(449,665,o),
(415,608,cs),
(294,404,o),
(99,175,o),
(65,150,c),
(56,107,o),
(49,86,o),
(50,57,c),
(59,68,o),
(51,60,o),
(58,47,cs),
(79,7,o),
(71,-13,o),
(215,-13,cs),
(297,-13,o),
(427,-7,o),
(639,7,cs),
(667,9,o),
(667,23,o),
(680,74,c)
);
}
);
width = 731;
}
);
note = Z;
unicode = 90;
},
{
glyphname = a;
layers = (
{
hints = (
{
horizontal = 1;
place = (-23, 21);
target = up;
type = BottomGhost;
},
{
place = (50, 680);
place = (50, 680);
type = Stem;
}
);
layerId = m01;
shapes = (
{
closed = 1;
nodes = (
(702,231,o),
(674,270,o),
(634,373,cs),
(625,398,o),
(640,369,o),
(568,630,cs),
(558,664,o),
(540,696,o),
(527,733,cs),
(512,776,o),
(473,827,o),
(430,822,cs),
(251,801,o),
(352,862,o),
(59,103,cs),
(33,35,o),
(71,-5,o),
(98,-12,cs),
(124,-19,o),
(144,-23,o),
(160,-23,cs),
(222,-23,o),
(237,33,o),
(309,227,cs),
(313,240,o),
(338,252,o),
(354,253,cs),
(420,259,o),
(455,274,o),
(477,274,cs),
(508,274,o),
(518,247,o),
(556,137,cs),
(578,74,o),
(574,-9,o),
(646,7,cs),
(677,14,o),
(701,4,o),
(725,39,cs),
(732,48,o),
(731,60,o),
(724,103,cs)
);
},
{
closed = 1;
nodes = (
(383,393,o),
(369,415,o),
(381,441,cs),
(389,458,o),
(404,492,o),
(417,492,cs),
(421,492,o),
(425,489,o),
(428,482,cs),
(468,399,o),
(446,402,o),
(417,393,c)
);
}
);
width = 780;
}
);
note = a;
unicode = 97;
},
{
glyphname = b;
layers = (
{
hints = (
{
horizontal = 1;
place = (-11, 21);
target = up;
type = BottomGhost;
},
{
horizontal = 1;
place = (-8, 21);
target = up;
type = BottomGhost;
},
{
horizontal = 1;
place = (697, 143);
place = (697, 143);
type = Stem;
},
{
place = (80, 164);
place = (80, 164);
type = Stem;
},
{
place = (449, 140);
place = (449, 140);
type = Stem;
},
{
horizontal = 1;
place = (-11, 145);
place = (-11, 145);
type = Stem;
},
{
place = (431, 58);
place = (431, 58);
type = Stem;
}
);
layerId = m01;
shapes = (
{
closed = 1;
nodes = (
(271,-8,o),
(277,-9,o),
(282,-8,cs),
(481,16,o),
(516,62,o),
(575,167,cs),
(602,215,o),
(598,354,o),
(506,434,cs),
(440,492,o),
(593,483,o),
(543,707,cs),
(518,821,o),
(435,823,o),
(385,832,cs),
(351,838,o),
(300,840,o),
(253,840,cs),
(190,840,o),
(135,837,o),
(134,837,cs),
(76,822,o),
(94,802,o),
(80,435,cs),
(66,67,o),
(-15,-11,o),
(176,-11,cs),
(201,-11,o),
(230,-10,o),
(264,-8,cs)
);
},
{
closed = 1;
nodes = (
(363,702,o),
(379,692,o),
(402,680,cs),
(431,664,o),
(428,654,o),
(431,624,cs),
(438,560,o),
(338,540,o),
(273,540,cs),
(257,539,o),
(252,543,o),
(247,559,cs),
(245,566,o),
(244,574,o),
(244,581,cs),
(249,685,o),
(246,696,o),
(276,697,cs)
);
},
{
closed = 1;
nodes = (
(223,163,o),
(220,272,o),
(227,317,cs),
(231,340,o),
(261,351,o),
(299,351,cs),
(349,351,o),
(412,331,o),
(440,294,cs),
(453,276,o),
(459,211,o),
(410,178,cs),
(372,152,o),
(288,134,o),
(245,134,c),
(237,135,o),
(224,151,o),
(223,162,cs)
);
}
);
width = 640;
}
);
note = b;
unicode = 98;
},
{
glyphname = c;
layers = (
{
hints = (
{
horizontal = 1;
place = (3, 169);
place = (3, 169);
type = Stem;
},
{
horizontal = 1;
place = (861, -20);
target = down;
type = TopGhost;
},
{
place = (50, 128);
place = (50, 128);
type = Stem;
}
);
layerId = m01;
shapes = (
{
closed = 1;
nodes = (
(270,178,o),
(240,189,o),
(206,284,cs),
(182,351,o),
(165,391,o),
(190,493,cs),
(197,521,o),
(220,576,o),
(235,597,cs),
(255,628,o),
(331,672,o),
(397,662,cs),
(453,653,o),
(486,642,o),
(506,642,cs),
(529,642,o),
(536,656,o),
(541,702,cs),
(545,738,o),
(551,767,o),
(543,782,c),
(514,848,o),
(475,861,o),
(408,861,cs),
(364,861,o),
(365,844,o),
(349,842,cs),
(-136,787,o),
(38,3,o),
(385,3,cs),
(444,3,o),
(509,27,o),
(577,81,cs),
(610,108,o),
(605,104,o),
(599,147,cs),
(596,167,o),
(565,230,o),
(528,230,cs),
(522,230,o),
(517,229,o),
(511,226,cs),
(457,198,o),
(493,208,o),
(439,190,cs),
(396,175,o),
(415,178,o),
(345,172,c)
);
}
);
width = 654;
}
);
note = c;
unicode = 99;
},
{
glyphname = d;
layers = (
{
hints = (
{
horizontal = 1;
place = (-21, 21);
target = up;
type = BottomGhost;
},
{
horizontal = 1;
place = (652, 169);
place = (652, 169);
type = Stem;
},
{
place = (51, 195);
place = (51, 195);
type = Stem;
},
{
place = (452, 216);
place = (452, 216);
type = Stem;
}
);
layerId = m01;
shapes = (
{
closed = 1;
nodes = (
(82,183,o),
(63,10,o),
(82,-2,cs),
(105,-17,o),
(122,-21,o),
(137,-21,cs),
(153,-21,o),
(165,-17,o),
(179,-16,cs),
(395,-3,o),
(585,50,o),
(636,257,cs),
(690,480,o),
(680,601,o),
(577,720,cs),
(508,800,o),
(400,821,o),
(297,821,cs),
(218,821,o),
(142,809,o),
(86,802,cs),
(15,794,o),
(73,766,o),
(73,183,c)
);
},
{
closed = 1;
nodes = (
(242,673,o),
(243,652,o),
(268,652,cs),
(380,650,o),
(407,617,o),
(427,563,cs),
(495,380,o),
(408,220,o),
(331,195,cs),
(302,186,o),
(280,172,o),
(266,172,cs),
(257,172,o),
(251,178,o),
(251,197,cs)
);
}
);
width = 719;
}
);
note = d;
unicode = 100;
},
{
glyphname = e;
layers = (
{
hints = (
{
horizontal = 1;
place = (-19, 154);
place = (-19, 154);
type = Stem;
},
{
place = (51, 164);
place = (51, 164);
type = Stem;
}
);
layerId = m01;
shapes = (
{
closed = 1;
nodes = (
(512,93,o),
(510,111,o),
(484,144,cs),
(480,150,o),
(475,153,o),
(462,153,cs),
(443,153,o),
(407,147,o),
(328,139,cs),
(306,137,o),
(289,135,o),
(277,135,cs),
(248,135,o),
(243,144,o),
(240,170,cs),
(223,374,o),
(219,372,o),
(256,377,cs),
(383,394,o),
(414,379,o),
(416,426,cs),
(420,506,o),
(407,563,o),
(328,553,cs),
(280,546,o),
(253,542,o),
(237,542,cs),
(216,542,o),
(216,549,o),
(215,565,cs),
(209,699,o),
(216,659,o),
(326,666,cs),
(422,673,o),
(512,659,o),
(513,705,cs),
(513,750,o),
(512,827,o),
(467,828,cs),
(425,829,o),
(382,832,o),
(341,825,cs),
(305,819,o),
(278,817,o),
(255,817,cs),
(200,817,o),
(167,827,o),
(86,809,cs),
(54,802,o),
(51,777,o),
(51,712,cs),
(51,594,o),
(63,416,o),
(64,407,cs),
(95,182,o),
(25,-30,o),
(125,-30,cs),
(132,-30,o),
(141,-28,o),
(150,-26,cs),
(173,-20,o),
(201,-19,o),
(232,-19,cs),
(285,-19,o),
(346,-23,o),
(397,-14,cs),
(459,-3,o),
(525,-7,o),
(518,43,cs)
);
}
);
width = 569;
}
);
note = e;
unicode = 101;
},
{
glyphname = f;
layers = (
{
hints = (
{
horizontal = 1;
place = (410, 177);
place = (410, 177);
type = Stem;
},
{
horizontal = 1;
place = (863, -20);
target = down;
type = TopGhost;
},
{
place = (72, 175);
place = (72, 175);
type = Stem;
},
{
horizontal = 1;
place = (847, -20);
target = down;
type = TopGhost;
},
{
place = (62, 179);
place = (62, 179);
type = Stem;
}
);
layerId = m01;
shapes = (
{
closed = 1;
nodes = (
(366,860,l),
(202,860,o),
(201,845,o),
(105,847,cs),
(26,849,o),
(54,766,o),
(62,663,cs),
(76,471,o),
(56,469,o),
(72,428,cs),
(73,425,o),
(72,204,o),
(72,203,cs),
(72,169,o),
(60,191,o),
(63,84,cs),
(65,28,o),
(95,4,o),
(117,6,cs),
(154,10,o),
(191,14,o),
(228,20,cs),
(250,24,o),
(264,49,o),
(258,72,cs),
(241,140,o),
(245,305,o),
(247,375,cs),
(248,404,o),
(253,410,o),
(279,410,cs),
(301,410,o),
(336,406,o),
(395,407,cs),
(449,408,o),
(437,497,o),
(428,550,cs),
(421,584,o),
(390,590,o),
(356,590,cs),
(308,590,o),
(253,577,o),
(249,607,cs),
(233,727,o),
(211,710,o),
(482,718,cs),
(532,719,o),
(522,759,o),
(516,801,cs),
(507,863,o),
(476,855,o),
(366,863,c)
);
}
);
width = 572;
}
);
note = f;
unicode = 102;
},
{
glyphname = g;
layers = (
{
hints = (
{
horizontal = 1;
place = (-5, 21);
target = up;
type = BottomGhost;
},
{
horizontal = 1;
place = (283, 130);
place = (283, 130);
type = Stem;
},
{
horizontal = 1;
place = (695, 147);
place = (695, 147);
type = Stem;
},
{
place = (53, 152);
place = (53, 152);
type = Stem;
},
{
place = (470, 163);
place = (470, 163);
type = Stem;
},
{
horizontal = 1;
place = (-14, 21);
target = up;
type = BottomGhost;
},
{
horizontal = 1;
place = (-9, 21);
target = up;
type = BottomGhost;
}
);
layerId = m01;
shapes = (
{
closed = 1;
nodes = (
(517,2,o),
(519,1,o),
(549,-10,cs),
(556,-13,o),
(563,-14,o),
(570,-14,cs),
(583,-14,o),
(596,-10,o),
(608,-9,cs),
(654,-4,o),
(641,21,o),
(633,212,cs),
(624,432,o),
(659,420,o),
(356,413,c),
(348,412,o),
(340,410,o),
(333,408,cs),
(310,402,o),
(304,396,o),
(306,372,cs),
(311,322,o),
(314,277,o),
(358,276,cs),
(392,275,o),
(420,283,o),
(440,283,cs),
(462,283,o),
(474,273,o),
(470,228,cs),
(465,171,o),
(415,146,o),
(400,154,cs),
(375,166,o),
(347,173,o),
(327,195,cs),
(249,279,o),
(247,353,o),
(230,387,cs),
(190,464,o),
(203,556,o),
(228,608,cs),
(255,666,o),
(312,695,o),
(363,695,cs),
(402,695,o),
(439,679,o),
(459,646,cs),
(479,612,o),
(507,600,o),
(539,600,cs),
(556,600,o),
(573,604,o),
(592,609,cs),
(672,631,o),
(606,716,o),
(592,761,cs),
(573,824,o),
(492,842,o),
(409,842,cs),
(330,842,o),
(249,825,o),
(223,812,cs),
(163,782,o),
(115,738,o),
(93,672,cs),
(76,621,o),
(53,573,o),
(53,518,cs),
(52,393,o),
(23,224,o),
(199,42,cs),
(260,-21,o),
(309,7,o),
(358,-1,cs),
(375,-4,o),
(389,-5,o),
(401,-5,cs),
(443,-5,o),
(462,10,o),
(502,32,c)
);
}
);
width = 691;
}
);
note = g;
unicode = 103;
},
{
glyphname = h;
layers = (
{
hints = (
{
horizontal = 1;
place = (-16, 21);
target = up;
type = BottomGhost;
},
{
horizontal = 1;
place = (409, 165);
place = (409, 165);
type = Stem;
},
{
place = (77, 181);
place = (77, 181);
type = Stem;
},
{
place = (480, 182);
place = (480, 182);
type = Stem;
}
);
layerId = m01;
shapes = (
{
closed = 1;
nodes = (
(257,630,o),
(254,682,o),
(252,734,cs),
(251,764,o),
(271,828,o),
(209,827,cs),
(176,827,o),
(142,823,o),
(109,822,cs),
(75,821,o),
(69,817,o),
(55,786,cs),
(39,748,o),
(72,738,o),
(74,644,cs),
(75,594,o),
(81,359,o),
(71,43,cs),
(70,-10,o),
(99,-28,o),
(142,-28,cs),
(164,-28,o),
(190,-23,o),
(217,-16,cs),
(256,-5,o),
(258,24,o),
(258,68,c),
(258,68,o),
(251,356,o),
(255,379,cs),
(260,402,o),
(265,409,o),
(316,409,cs),
(343,409,o),
(384,407,o),
(444,405,cs),
(495,403,o),
(455,233,o),
(480,29,cs),
(485,-3,o),
(517,-16,o),
(554,-16,cs),
(582,-16,o),
(613,-8,o),
(636,3,cs),
(673,22,o),
(663,39,o),
(655,169,cs),
(640,434,o),
(651,320,o),
(647,429,cs),
(645,470,o),
(645,412,o),
(624,691,cs),
(619,755,o),
(630,823,o),
(569,827,cs),
(391,839,o),
(454,769,o),
(453,597,cs),
(452,575,o),
(438,572,o),
(259,574,c)
);
}
);
width = 713;
}
);
note = h;
unicode = 104;
},
{
glyphname = i;
layers = (
{
hints = (
{
horizontal = 1;
place = (854, -20);
target = down;
type = TopGhost;
},
{
place = (72, 164);
place = (72, 164);
type = Stem;
}
);
layerId = m01;
shapes = (
{
closed = 1;
nodes = (
(236,854,l),
(69,837,o),
(53,844,o),
(51,798,cs),
(47,690,o),
(69,694,o),
(65,628,cs),
(60,556,o),
(72,324,o),
(72,323,cs),
(71,54,o),
(58,11,o),
(121,11,cs),
(145,11,o),
(182,18,o),
(236,20,c)
);
}
);
width = 287;
}
);
note = i;
unicode = 105;
},
{
glyphname = j;
layers = (
{
hints = (
{
horizontal = 1;
place = (-16, 21);
target = up;
type = BottomGhost;
},
{
horizontal = 1;
place = (844, -20);
target = down;
type = TopGhost;
},
{
place = (51, 618);
place = (51, 618);
type = Stem;
},
{
horizontal = 1;
place = (614, 216);
place = (614, 216);
type = Stem;
},
{
horizontal = 1;
place = (-16, 168);
place = (-16, 168);
type = Stem;
}
);
layerId = m01;
shapes = (
{
closed = 1;
nodes = (
(652,701,o),
(646,722,o),
(642,737,c),
(645,781,o),
(616,829,o),
(568,833,c),
(556,838,o),
(544,841,o),
(531,841,cs),
(523,841,o),
(514,840,o),
(505,837,cs),
(498,835,o),
(483,833,o),
(462,830,c),
(371,829,o),
(280,834,o),
(190,844,cs),
(134,851,o),
(99,797,o),
(104,747,c),
(104,733,o),
(105,720,o),
(107,706,cs),
(108,702,o),
(129,650,o),
(194,646,cs),
(231,645,o),
(239,648,o),
(261,632,cs),
(285,615,o),
(287,428,o),
(285,396,cs),
(279,313,o),
(283,348,o),
(291,195,cs),
(292,175,o),
(281,152,o),
(262,152,cs),
(255,152,o),
(248,154,o),
(239,161,cs),
(231,167,o),
(211,196,o),
(174,201,cs),
(134,206,o),
(83,172,o),
(59,138,cs),
(47,121,o),
(48,112,o),
(62,97,cs),
(72,86,o),
(163,16,o),
(200,-3,cs),
(220,-12,o),
(245,-16,o),
(272,-16,cs),
(307,-16,o),
(343,-10,o),
(370,-1,cs),
(464,28,o),
(449,121,o),
(469,321,cs),
(492,545,o),
(455,595,o),
(530,605,c),
(530,605,o),
(658,614,o),
(659,614,c),
(674,655,o),
(670,649,o),
(663,669,cs)
);
}
);
width = 720;
}
);
note = j;
unicode = 106;
},
{
glyphname = k;
layers = (
{
hints = (
{
horizontal = 1;
place = (-2, 21);
target = up;
type = BottomGhost;
},
{
horizontal = 1;
place = (860, -20);
target = down;
type = TopGhost;
},
{
place = (72, 188);
place = (72, 188);
type = Stem;
},
{
place = (50, 364);
place = (50, 364);
type = Stem;
},
{
horizontal = 1;
place = (845, -20);
target = down;
type = TopGhost;
},
{
horizontal = 1;
place = (-3, 21);
target = up;
type = BottomGhost;
},
{
horizontal = 1;
place = (-9, 21);
target = up;
type = BottomGhost;
}
);
layerId = m01;
shapes = (
{
closed = 1;
nodes = (
(493,36,o),
(454,-2,o),
(542,-2,cs),
(566,-2,o),
(599,0,o),
(647,2,cs),
(745,6,o),
(586,170,o),
(496,350,cs),
(389,562,o),
(349,436,o),
(612,798,c),
(603,831,o),
(578,849,o),
(552,852,cs),
(495,858,o),
(468,869,o),
(449,869,cs),
(412,869,o),
(409,824,o),
(262,600,c),
(240,738,o),
(265,807,o),
(240,834,cs),
(224,850,o),
(203,860,o),
(181,860,cs),
(171,860,o),
(161,858,o),
(151,853,cs),
(141,848,o),
(132,845,o),
(122,845,cs),
(115,845,o),
(108,847,o),
(100,849,cs),
(15,875,o),
(65,682,o),
(63,512,cs),
(62,460,o),
(72,263,o),
(72,263,c),
(82,73,o),
(50,12,o),
(125,-3,cs),
(146,-7,o),
(168,-10,o),
(189,-9,cs),
(232,-6,o),
(263,23,o),
(265,61,cs),
(268,119,o),
(277,178,o),
(264,237,cs),
(254,284,o),
(261,295,o),
(300,315,c)
);
}
);
width = 728;
}
);
note = k;
unicode = 107;
},
{
glyphname = l;
layers = (
{
hints = (
{
horizontal = 1;
place = (-24, 173);
place = (-24, 173);
type = Stem;
},
{
place = (50, 456);
place = (50, 456);
type = Stem;
},
{
horizontal = 1;
place = (-18, 21);
target = up;
type = BottomGhost;
}
);
layerId = m01;
shapes = (
{
closed = 1;
nodes = (
(221,155,o),
(239,121,o),
(229,355,cs),
(221,541,o),
(237,511,o),
(229,724,cs),
(226,806,o),
(196,823,o),
(158,823,cs),
(140,823,o),
(119,819,o),
(99,816,cs),
(75,812,o),
(54,784,o),
(55,765,cs),
(58,704,o),
(57,550,o),
(56,546,cs),
(40,417,o),
(61,274,o),
(64,97,cs),
(65,42,o),
(55,37,o),
(73,16,cs),
(101,-16,o),
(130,-24,o),
(191,-24,cs),
(245,-24,o),
(325,-18,o),
(452,-18,cs),
(489,-18,o),
(508,9,o),
(506,32,cs),
(499,101,o),
(507,116,o),
(478,142,cs),
(467,152,o),
(459,156,o),
(444,156,cs),
(430,156,o),
(409,152,o),
(374,149,c)
);
}
);
width = 556;
}
);
note = l;
unicode = 108;
},
{
glyphname = m;
layers = (
{
hints = (
{
horizontal = 1;
place = (-17, 21);
target = up;
type = BottomGhost;
},
{
horizontal = 1;
place = (848, -20);
target = down;
type = TopGhost;
},
{
place = (50, 966);
place = (50, 966);
type = Stem;
},
{
horizontal = 1;
place = (-20, 21);
target = up;
type = BottomGhost;
},
{
horizontal = 1;
place = (845, -20);
target = down;
type = TopGhost;
}
);
layerId = m01;
shapes = (
{
closed = 1;
nodes = (
(923,442,o),
(941,421,o),
(890,572,cs),
(882,596,o),
(870,618,o),
(863,642,cs),
(836,737,o),
(827,869,o),
(740,845,cs),
(721,840,o),
(679,854,o),
(658,811,cs),
(630,750,o),
(587,696,o),
(565,632,cs),
(562,622,o),
(555,617,o),
(547,617,cs),
(540,617,o),
(533,621,o),
(528,629,cs),
(446,763,o),
(438,848,o),
(332,837,cs),
(330,837,o),
(327,837,o),
(325,837,cs),
(318,836,o),
(312,835,o),
(307,835,cs),
(187,823,o),
(265,813,o),
(116,252,cs),
(64,56,o),
(23,45,o),
(73,7,cs),
(93,-8,o),
(123,-20,o),
(150,-20,cs),
(181,-20,o),
(209,-5,o),
(217,36,cs),
(239,142,o),
(327,411,o),
(328,419,cs),
(333,472,o),
(351,520,o),
(380,572,c),
(405,548,o),
(397,563,o),
(423,513,cs),
(449,462,o),
(490,384,o),
(547,395,cs),
(578,400,o),
(610,406,o),
(632,435,cs),
(659,472,o),
(691,507,o),
(708,551,cs),
(712,562,o),
(718,566,o),
(724,566,cs),
(739,566,o),
(756,536,o),
(757,524,cs),
(758,477,o),
(765,518,o),
(801,298,cs),
(838,69,o),
(832,-17,o),
(900,-17,cs),
(921,-17,o),
(949,-9,o),
(987,6,cs),
(1042,27,o),
(1015,27,o),
(939,370,cs)
);
}
);
width = 1067;
}
);
note = m;
unicode = 109;
},
{
glyphname = n;
layers = (
{
hints = (
{
horizontal = 1;
place = (859, -20);
target = down;
type = TopGhost;
},
{
place = (64, 203);
place = (64, 203);
type = Stem;
},
{
horizontal = 1;
place = (854, -20);
target = down;
type = TopGhost;
},
{
horizontal = 1;
place = (851, -20);
target = down;
type = TopGhost;
}
);
layerId = m01;
shapes = (
{
closed = 1;
nodes = (
(708,824,o),
(715,859,o),
(651,859,cs),
(630,859,o),
(601,856,o),
(563,854,cs),
(550,853,o),
(543,847,o),
(540,835,cs),
(515,737,o),
(520,528,o),
(503,458,c),
(488,455,o),
(512,443,o),
(312,809,cs),
(304,823,o),
(293,838,o),
(276,842,cs),
(254,847,o),
(232,851,o),
(210,851,cs),
(99,849,o),
(46,850,o),
(57,777,cs),
(75,662,o),
(51,84,o),
(51,62,cs),
(50,37,o),
(75,0,o),
(133,11,cs),
(237,30,o),
(254,36,o),
(249,162,cs),
(247,217,o),
(256,449,o),
(267,474,c),
(267,474,o),
(471,101,o),
(482,47,cs),
(492,3,o),
(576,2,o),
(621,3,cs),
(642,3,o),
(656,13,o),
(666,29,cs),
(697,77,o),
(667,84,o),
(668,111,cs),
(669,168,o),
(682,231,o),
(684,337,cs),
(684,374,o),
(679,427,o),
(683,443,cs),
(695,499,o),
(688,520,o),
(692,588,cs)
);
}
);
width = 754;
}
);
note = n;
unicode = 110;
},
{
glyphname = o;
layers = (
{
hints = (
{
horizontal = 1;
place = (2, 131);
place = (2, 131);
type = Stem;
},
{
horizontal = 1;
place = (721, 143);
place = (721, 143);
type = Stem;
},
{
place = (51, 166);
place = (51, 166);
type = Stem;
},
{
place = (542, 171);
place = (542, 171);
type = Stem;
}
);
layerId = m01;
shapes = (
{
closed = 1;
nodes = (
(587,768,o),
(577,818,o),
(479,855,cs),
(463,861,o),
(443,864,o),
(421,864,cs),
(323,864,o),
(179,804,o),
(125,711,cs),
(118,699,o),
(96,656,o),
(95,652,cs),
(48,458,o),
(4,223,o),
(156,93,cs),
(214,43,o),
(283,2,o),
(354,2,cs),
(373,2,o),
(392,4,o),
(411,11,cs),
(705,113,o),
(803,507,o),
(624,723,cs)
);
},
{
closed = 1;
nodes = (
(489,206,o),
(469,198,o),
(430,159,cs),
(397,127,o),
(363,133,o),
(352,133,cs),
(267,129,o),
(252,205,o),
(232,280,cs),
(185,450,o),
(251,721,o),
(366,721,cs),
(393,721,o),
(423,706,o),
(455,670,cs),
(573,536,o),
(546,340,o),
(520,277,cs)
);
}
);
width = 764;
}
);
note = o;
unicode = 111;
},
{
glyphname = p;
layers = (
{
hints = (
{
horizontal = 1;
place = (-14, 21);
target = up;
type = BottomGhost;
},
{
horizontal = 1;
place = (717, 126);
place = (717, 126);
type = Stem;
},
{
place = (69, 165);
place = (69, 165);
type = Stem;
},
{
place = (416, 214);
place = (416, 214);
type = Stem;
}
);
layerId = m01;
shapes = (
{
closed = 1;
nodes = (
(65,449,o),
(69,461,o),
(57,182,cs),
(49,-17,o),
(22,-13,o),
(190,-14,cs),
(249,-14,o),
(246,14,o),
(241,333,cs),
(240,369,o),
(246,369,o),
(261,370,cs),
(437,377,o),
(587,483,o),
(618,564,cs),
(647,637,o),
(619,682,o),
(581,750,cs),
(542,818,o),
(474,835,o),
(405,839,cs),
(377,840,o),
(332,843,o),
(283,843,cs),
(178,843,o),
(56,832,o),
(61,778,cs),
(87,528,o),
(42,497,o),
(58,463,cs)
);
},
{
closed = 1;
nodes = (
(235,706,o),
(230,709,o),
(262,712,cs),
(288,715,o),
(310,717,o),
(328,717,cs),
(368,717,o),
(392,708,o),
(403,678,cs),
(445,561,o),
(387,552,o),
(275,541,cs),
(235,538,o),
(235,545,o),
(234,565,cs),
(234,571,o),
(233,627,o),
(235,627,c)
);
}
);
width = 681;
}
);
note = p;
unicode = 112;
},
{
glyphname = q;
layers = (
{
hints = (
{
horizontal = 1;
place = (55, 139);
place = (55, 139);
type = Stem;
},
{
horizontal = 1;
place = (844, -20);
target = down;
type = TopGhost;
},
{
place = (536, 188);
place = (536, 188);
type = Stem;
},
{
horizontal = 1;
place = (680, 164);
place = (680, 164);
type = Stem;
}
);
layerId = m01;
shapes = (
{
closed = 1;
nodes = (
(741,308,o),
(736,488,o),
(698,616,cs),
(673,699,o),
(639,753,o),
(483,829,cs),
(459,840,o),
(438,844,o),
(418,844,cs),
(370,844,o),
(331,822,o),
(282,826,cs),
(276,827,o),
(221,797,o),
(212,792,cs),
(74,702,o),
(68,557,o),
(55,461,cs),
(45,390,o),
(53,315,o),
(62,300,cs),
(143,162,o),
(125,194,o),
(198,118,cs),
(205,110,o),
(215,111,o),
(299,73,cs),
(383,35,o),
(442,71,o),
(460,31,cs),
(474,2,o),
(496,-24,o),
(500,-56,cs),
(501,-66,o),
(524,-106,o),
(563,-99,cs),
(635,-86,o),
(741,-43,o),
(720,22,cs),
(687,124,o),
(626,137,o),
(663,193,cs)
);
},
{
closed = 1;
nodes = (
(521,297,o),
(460,326,o),
(408,269,cs),
(379,237,o),
(392,225,o),
(389,195,c),
(317,204,o),
(251,312,o),
(263,407,cs),
(276,502,o),
(256,504,o),
(292,623,cs),
(296,637,o),
(347,685,o),
(429,680,cs),
(538,674,o),
(545,470,o),
(531,370,cs)
);
}
);
width = 775;
}
);
note = q;
unicode = 113;
},
{
glyphname = r;
layers = (
{
hints = (
{
horizontal = 1;
place = (-24, 21);
target = up;
type = BottomGhost;
},
{
horizontal = 1;
place = (712, 118);
place = (712, 118);
type = Stem;
},
{
place = (105, 164);
place = (105, 164);
type = Stem;
},
{
place = (414, 156);
place = (414, 156);
type = Stem;
},
{
place = (50, 181);
place = (50, 181);
type = Stem;
}
);
layerId = m01;
shapes = (
{
closed = 1;
nodes = (
(451,369,o),
(466,373,o),
(488,386,cs),
(600,450,o),
(584,610,o),
(523,725,cs),
(483,798,o),
(424,810,o),
(351,821,cs),
(333,824,o),
(278,830,o),
(277,830,cs),
(6,826,o),
(43,852,o),
(67,569,cs),
(74,486,o),
(117,129,o),
(102,129,c),
(102,48,o),
(92,-3,o),
(140,-21,cs),
(155,-26,o),
(176,-30,o),
(197,-30,cs),
(241,-30,o),
(287,-15,o),
(286,24,cs),
(283,129,o),
(266,193,o),
(269,294,cs),
(269,304,o),
(272,307,o),
(277,307,cs),
(288,307,o),
(307,286,o),
(311,281,cs),
(356,213,o),
(389,149,o),
(402,130,cs),
(456,54,o),
(426,3,o),
(480,-16,cs),
(493,-21,o),
(509,-22,o),
(577,-24,cs),
(732,-28,o),
(629,33,o),
(460,353,cs)
);
},
{
closed = 1;
nodes = (
(343,490,o),
(315,483,o),
(292,483,cs),
(265,483,o),
(245,492,o),
(242,519,cs),
(241,536,o),
(243,563,o),
(231,658,cs),
(224,712,o),
(259,708,o),
(280,712,c),
(419,705,o),
(454,524,o),
(367,497,cs)
);
}
);
width = 704;
}
);
note = r;
unicode = 114;
},
{
glyphname = s;
layers = (
{
hints = (
{
horizontal = 1;
place = (-12, 21);
target = up;
type = BottomGhost;
},
{
place = (329, 166);
place = (329, 166);
type = Stem;
}
);
layerId = m01;
shapes = (
{
closed = 1;
nodes = (
(291,-16,o),
(315,-3,o),
(379,21,cs),
(427,39,o),
(458,92,o),
(480,135,cs),
(499,173,o),
(497,230,o),
(490,281,cs),
(477,382,o),
(424,407,o),
(400,460,cs),
(396,467,o),
(389,471,o),
(298,562,cs),
(278,583,o),
(268,606,o),
(284,629,cs),
(304,656,o),
(328,664,o),
(351,664,cs),
(381,664,o),
(411,651,o),
(432,651,cs),
(440,651,o),
(446,653,o),
(451,657,cs),
(462,667,o),
(472,678,o),
(471,695,cs),
(470,705,o),
(476,717,o),
(467,743,cs),
(457,772,o),
(432,788,o),
(409,804,cs),
(376,828,o),
(335,834,o),
(296,840,cs),
(233,850,o),
(206,812,o),
(168,790,cs),
(140,774,o),
(142,779,o),
(126,750,cs),
(113,727,o),
(110,733,o),
(93,656,cs),
(85,619,o),
(110,511,o),
(179,439,cs),
(344,270,o),
(348,274,o),
(308,203,cs),
(294,178,o),
(273,168,o),
(252,168,cs),
(238,168,o),
(224,172,o),
(213,181,cs),
(176,210,o),
(165,217,o),
(141,217,cs),
(129,217,o),
(114,215,o),
(91,214,cs),
(64,213,o),
(56,190,o),
(53,162,cs),
(46,98,o),
(57,76,o),
(69,58,cs),
(97,17,o),
(148,-14,o),
(223,-12,c)
);
}
);
width = 545;
}
);
note = s;
unicode = 115;
},
{
glyphname = t;
layers = (
{
hints = (
{
horizontal = 1;
place = (-12, 21);
target = up;
type = BottomGhost;
},
{
horizontal = 1;
place = (676, 161);
place = (676, 161);
type = Stem;
},
{
place = (51, 154);
place = (51, 154);
type = Stem;
},
{
place = (250, 180);
place = (250, 180);
type = Stem;
}
);
layerId = m01;
shapes = (
{
closed = 1;
nodes = (
(205,841,l),
(61,827,o),
(24,844,o),
(68,726,cs),
(79,696,o),
(103,667,o),
(144,675,cs),
(160,678,o),
(177,676,o),
(193,676,cs),
(222,676,o),
(243,674,o),
(247,601,cs),
(248,580,o),
(249,559,o),
(247,538,cs),
(243,473,o),
(259,408,o),
(241,344,cs),
(240,340,o),
(254,150,o),
(248,52,cs),
(245,0,o),
(260,-10,o),
(392,-12,cs),
(450,-13,o),
(435,46,o),
(430,203,cs),
(420,557,o),
(424,594,o),
(427,640,cs),
(429,672,o),
(452,678,o),
(479,678,cs),
(514,678,o),
(556,668,o),
(573,692,cs),
(594,722,o),
(609,754,o),
(591,793,cs),
(569,843,o),
(567,827,o),
(205,837,c)
);
}
);
width = 650;
}
);
note = t;
unicode = 116;
},
{
glyphname = u;
layers = (
{
hints = (
{
horizontal = 1;
place = (-17, 155);
place = (-17, 155);
type = Stem;
},
{
horizontal = 1;
place = (845, -20);
target = down;
type = TopGhost;
},
{
place = (464, 167);
place = (464, 167);
type = Stem;
}
);
layerId = m01;
shapes = (
{
closed = 1;
nodes = (
(53,415,l),
(62,235,o),
(69,211,o),
(118,103,cs),
(156,21,o),
(251,-17,o),
(326,-17,cs),
(343,-17,o),
(359,-15,o),
(373,-11,cs),
(433,5,o),
(486,7,o),
(518,46,cs),
(657,216,o),
(604,286,o),
(619,440,cs),
(626,512,o),
(644,744,o),
(614,811,cs),
(603,836,o),
(576,845,o),
(546,845,cs),
(525,845,o),
(503,841,o),
(485,833,cs),
(458,822,o),
(463,796,o),
(464,773,cs),
(464,770,o),
(458,380,o),
(456,336,cs),
(447,193,o),
(381,138,o),
(329,138,cs),
(302,138,o),
(279,153,o),
(270,177,cs),
(266,188,o),
(248,203,o),
(243,240,cs),
(156,827,o),
(316,832,o),
(84,831,cs),
(51,831,o),
(46,852,o),
(54,415,c)
);
}
);
width = 681;
}
);
note = u;
unicode = 117;
},
{
glyphname = v;
layers = (
{
hints = (
{
horizontal = 1;
place = (-21, 21);
target = up;
type = BottomGhost;
},
{
place = (50, 573);
place = (50, 573);
type = Stem;
},
{
place = (50, 182);
place = (50, 182);
type = Stem;
}
);
layerId = m01;
shapes = (
{
closed = 1;
nodes = (
(430,655,o),
(379,463,o),
(378,458,cs),
(338,279,o),
(349,316,o),
(332,292,c),
(322,325,o),
(310,352,o),
(306,381,cs),
(276,585,o),
(307,339,o),
(232,776,cs),
(228,801,o),
(193,814,o),
(154,814,cs),
(97,814,o),
(33,785,o),
(54,722,cs),
(81,644,o),
(46,735,o),
(189,193,cs),
(228,46,o),
(212,3,o),
(282,-15,cs),
(296,-19,o),
(314,-21,o),
(333,-21,cs),
(373,-21,o),
(416,-10,o),
(430,20,cs),
(463,97,o),
(469,175,o),
(510,250,c),
(510,251,o),
(533,395,o),
(586,553,cs),
(657,762,o),
(613,828,o),
(558,828,cs),
(515,828,o),
(465,789,o),
(454,745,cs)
);
}
);
width = 701;
}
);
note = v;
unicode = 118;
},
{
glyphname = w;
layers = (
{
hints = (
{
horizontal = 1;
place = (-8, 21);
target = up;
type = BottomGhost;
},
{
horizontal = 1;
place = (844, -20);
target = down;
type = TopGhost;
},
{
place = (117, 115);
place = (117, 115);
type = Stem;
},
{
place = (678, 206);
place = (678, 206);
type = Stem;
},
{
horizontal = 1;
place = (-15, 21);
target = up;
type = BottomGhost;
}
);
layerId = m01;
shapes = (
{
closed = 1;
nodes = (
(220,393,o),
(253,717,o),
(188,799,cs),
(174,817,o),
(153,822,o),
(131,822,cs),
(115,822,o),
(97,819,o),
(81,817,cs),
(72,816,o),
(45,799,o),
(51,756,cs),
(61,683,o),
(135,117,o),
(113,35,cs),
(105,5,o),
(153,-16,o),
(175,-15,cs),
(356,-14,o),
(260,13,o),
(400,243,cs),
(404,250,o),
(409,254,o),
(413,254,cs),
(454,254,o),
(497,-21,o),
(573,-8,cs),
(615,-1,o),
(658,-11,o),
(669,27,c),
(669,27,o),
(799,525,o),
(811,549,cs),
(829,586,o),
(870,712,o),
(881,752,cs),
(900,817,o),
(857,844,o),
(809,844,cs),
(767,844,o),
(722,823,o),
(711,788,cs),
(680,687,o),
(673,566,o),
(591,342,cs),
(582,318,o),
(575,306,o),
(568,306,cs),
(557,306,o),
(546,334,o),
(525,391,cs),
(477,523,o),
(495,529,o),
(405,535,cs),
(303,543,o),
(314,398,o),
(263,353,c)
);
}
);
width = 936;
}
);
note = w;
unicode = 119;
},
{
glyphname = x;
layers = (
{
hints = (
{
horizontal = 1;
place = (-21, 21);
target = up;
type = BottomGhost;
},
{
place = (323, 236);
place = (323, 236);
type = Stem;
},
{
place = (560, 206);
place = (560, 206);
type = Stem;
}
);
layerId = m01;
shapes = (
{
closed = 1;
nodes = (
(774,728,o),
(804,736,o),
(798,764,cs),
(791,796,o),
(786,823,o),
(754,825,cs),
(737,826,o),
(712,828,o),
(688,828,cs),
(655,828,o),
(624,824,o),
(614,805,cs),
(600,780,o),
(565,733,o),
(540,694,cs),
(472,587,o),
(453,544,o),
(438,544,cs),
(426,544,o),
(418,575,o),
(388,624,cs),
(305,763,o),
(327,776,o),
(287,796,cs),
(266,807,o),
(222,821,o),
(190,821,cs),
(178,821,o),
(167,819,o),
(160,813,cs),
(148,804,o),
(139,792,o),
(129,781,cs),
(120,770,o),
(119,758,o),
(126,745,cs),
(148,704,o),
(165,659,o),
(195,620,cs),
(228,576,o),
(257,527,o),
(283,478,cs),
(341,366,o),
(348,405,o),
(222,248,cs),
(182,199,o),
(173,159,o),
(69,64,c),
(62,52,o),
(54,40,o),
(51,27,cs),
(47,5,o),
(62,-28,o),
(105,-28,cs),
(113,-28,o),
(121,-27,o),
(130,-25,cs),
(142,-22,o),
(155,-21,o),
(167,-21,cs),
(190,-21,o),
(212,-23,o),
(230,-17,cs),
(277,0,o),
(252,-8,o),
(299,57,cs),
(310,72,o),
(353,109,o),
(372,131,cs),
(398,162,o),
(407,195,o),
(442,218,c),
(471,169,o),
(496,135,o),
(532,77,cs),
(577,5,o),
(549,12,o),
(572,-7,cs),
(593,-23,o),
(625,-31,o),
(644,-25,cs),
(736,0,o),
(803,10,o),
(746,86,cs),
(696,151,o),
(714,150,o),
(609,304,cs),
(543,400,o),
(550,383,o),
(586,439,cs)
);
}
);
width = 849;
}
);
note = x;
unicode = 120;
},
{
glyphname = y;
layers = (
{
hints = (
{
horizontal = 1;
place = (-26, 21);
target = up;
type = BottomGhost;
},
{
place = (219, 162);
place = (219, 162);
type = Stem;
}
);
layerId = m01;
shapes = (
{
closed = 1;
nodes = (
(213,750,o),
(196,792,o),
(135,792,cs),
(120,792,o),
(101,789,o),
(78,785,cs),
(53,781,o),
(48,774,o),
(52,751,cs),
(56,732,o),
(146,578,o),
(196,522,cs),
(251,459,o),
(234,420,o),
(235,319,cs),
(237,43,o),
(197,15,o),
(236,-6,cs),
(260,-19,o),
(290,-26,o),
(318,-26,cs),
(360,-26,o),
(395,-10,o),
(395,29,cs),
(395,36,o),
(395,208,o),
(395,215,cs),
(387,409,o),
(355,458,o),
(426,522,cs),
(496,584,o),
(579,725,o),
(579,725,c),
(612,788,o),
(477,787,o),
(476,788,c),
(456,791,o),
(441,786,o),
(430,771,cs),
(396,725,o),
(317,616,o),
(293,601,c)
);
}
);
width = 635;
}
);
note = y;
unicode = 121;
},
{
glyphname = z;
layers = (
{
hints = (
{
horizontal = 1;
place = (-5, 164);
place = (-5, 164);
type = Stem;
},
{
horizontal = 1;
place = (655, 169);
place = (655, 169);
type = Stem;
},
{
place = (50, 630);
place = (50, 630);
type = Stem;
}
);
layerId = m01;
shapes = (
{
closed = 1;
nodes = (
(661,124,o),
(717,199,o),
(600,183,c),
(594,183,o),
(595,178,o),
(571,176,cs),
(477,167,o),
(403,159,o),
(356,159,cs),
(332,159,o),
(315,161,o),
(305,165,c),
(306,165,o),
(424,310,o),
(426,314,c),
(690,679,o),
(660,648,o),
(674,737,cs),
(677,760,o),
(652,802,o),
(631,810,cs),
(605,820,o),
(577,825,o),
(550,825,cs),
(538,825,o),
(527,824,o),
(515,822,cs),
(462,813,o),
(470,818,o),
(390,813,cs),
(346,810,o),
(369,822,o),
(303,815,cs),
(212,806,o),
(161,824,o),
(130,824,cs),
(106,824,o),
(93,814,o),
(84,776,cs),
(66,709,o),
(111,657,o),
(169,655,cs),
(336,650,o),
(449,672,o),
(415,616,cs),
(294,411,o),
(99,183,o),
(65,158,c),
(56,114,o),
(49,93,o),
(50,64,c),
(59,75,o),
(51,68,o),
(58,55,cs),
(79,15,o),
(71,-5,o),
(215,-5,cs),
(297,-5,o),
(427,1,o),
(639,15,cs),
(667,16,o),
(667,31,o),
(680,82,c)
);
}
);
width = 731;
}
);
note = z;
unicode = 122;
},
{
glyphname = quotesingle.1;
layers = (
{
hints = (
{
horizontal = 1;
place = (468, 330);
place = (468, 330);
type = Stem;
},
{
place = (54, 150);
place = (54, 150);
type = Stem;
}
);
layerId = m01;
shapes = (
{
closed = 1;
nodes = (
(196,697,o),
(219,761,o),
(115,798,cs),
(105,801,o),
(71,763,o),
(66,739,cs),
(56,690,o),
(61,637,o),
(54,587,cs),
(45,521,o),
(73,476,o),
(124,468,cs),
(180,461,o),
(200,513,o),
(204,571,c)
);
}
);
width = 252;
}
);
note = quotesingle.1;
},
{
glyphname = quotesinglbase;
layers = (
{
hints = (
{
horizontal = 1;
place = (-110, 331);
place = (-110, 331);
type = Stem;
},
{
place = (53, 159);
place = (53, 159);
type = Stem;
}
);
layerId = m01;
shapes = (
{
closed = 1;
nodes = (
(209,113,o),
(237,175,o),
(137,221,cs),
(128,225,o),
(90,190,o),
(83,167,cs),
(69,119,o),
(69,66,o),
(57,16,cs),
(42,-49,o),
(66,-96,o),
(116,-108,cs),
(172,-121,o),
(196,-71,o),
(205,-13,c)
);
}
);
width = 250;
}
);
note = quotesinglbase;
unicode = 8218;
},
{
glyphname = quotedblright;
layers = (
{
hints = (
{
horizontal = 1;
place = (461, 344);
place = (461, 344);
type = Stem;
},
{
place = (47, 157);
place = (47, 157);
type = Stem;
},
{
place = (219, 157);
place = (219, 157);
type = Stem;
}
);
layerId = m01;
shapes = (
{
closed = 1;
nodes = (
(201,698,o),
(229,760,o),
(128,805,cs),
(118,809,o),
(82,773,o),
(75,750,cs),
(61,702,o),
(62,649,o),
(51,599,cs),
(37,534,o),
(61,487,o),
(111,476,cs),
(167,464,o),
(191,514,o),
(199,572,c)
);
},
{
closed = 1;
nodes = (
(373,685,o),
(400,747,o),
(300,792,cs),
(290,796,o),
(253,760,o),
(247,737,cs),
(233,688,o),
(233,636,o),
(223,586,cs),
(209,521,o),
(233,474,o),
(283,463,cs),
(339,451,o),
(363,501,o),
(371,559,c)
);
}
);
width = 359;
}
);
note = quotedblright;
unicode = 8221;
},
{
glyphname = quotedblleft;
layers = (
{
hints = (
{
horizontal = 1;
place = (460, 344);
place = (460, 344);
type = Stem;
},
{
place = (231, 151);
place = (231, 151);
type = Stem;
},
{
place = (57, 152);
place = (57, 152);
type = Stem;
}
);
layerId = m01;
shapes = (
{
closed = 1;
nodes = (
(361,713,o),
(377,779,o),
(270,804,cs),
(260,807,o),
(230,765,o),
(228,741,cs),
(222,691,o),
(233,639,o),
(231,588,cs),
(229,522,o),
(261,479,o),
(312,478,cs),
(369,476,o),
(384,530,o),
(382,588,c)
);
},
{
closed = 1;
nodes = (
(189,695,o),
(206,761,o),
(99,787,cs),
(89,789,o),
(59,747,o),
(56,723,cs),
(51,673,o),
(61,621,o),
(59,571,cs),
(57,504,o),
(89,462,o),
(141,460,cs),
(198,458,o),
(212,512,o),
(210,570,c)
);
}
);
width = 359;
}
);
note = quotedblleft;
unicode = 8220;
},
{
glyphname = comma;
layers = (
{
layerId = m01;
shapes = (
{
closed = 1;
nodes = (
(209,113,o),
(237,175,o),
(137,221,cs),
(128,225,o),
(90,190,o),
(83,167,cs),
(69,119,o),
(69,66,o),
(57,16,cs),
(42,-49,o),
(66,-96,o),
(116,-108,cs),
(172,-121,o),
(196,-71,o),
(205,-13,c)
);
}
